<?xml version="1.0" standalone="no"?>
<!DOCTYPE svg PUBLIC "-//W3C//DTD SVG 20010904//EN"
 "http://www.w3.org/TR/2001/REC-SVG-20010904/DTD/svg10.dtd">
<svg version="1.0" xmlns="http://www.w3.org/2000/svg"
 width="120.000000pt" height="120.000000pt" viewBox="0 0 120.000000 120.000000"
 preserveAspectRatio="xMidYMid meet">

<g transform="translate(0.000000,120.000000) scale(0.100000,-0.100000)"
fill="#000000" stroke="none">
<path d="M0 600 l0 -600 600 0 600 0 0 600 0 600 -600 0 -600 0 0 -600z m1190
0 l0 -590 -41 0 -40 0 20 26 c22 28 18 54 -9 54 -10 0 -37 -7 -60 -15 -23 -8
-46 -12 -51 -9 -5 3 -9 0 -9 -5 0 -15 20 -14 70 4 23 8 46 15 51 15 16 0 9
-23 -13 -47 -18 -19 -32 -23 -84 -23 -63 0 -63 0 -54 25 5 13 6 26 2 29 -12 7
-62 -6 -56 -15 3 -5 -4 -9 -15 -9 -45 0 -17 29 73 76 52 27 93 50 91 52 -3 4
-110 -49 -173 -86 -28 -16 -39 -27 -32 -32 9 -6 9 -9 1 -14 -6 -4 -8 -12 -5
-18 4 -7 2 -8 -5 -4 -6 4 -11 13 -10 19 4 33 -2 40 -14 17 -9 -17 -10 -27 -3
-32 8 -5 7 -8 -1 -8 -6 0 -15 5 -18 10 -5 8 -12 7 -23 -2 -10 -9 -13 -9 -9 -1
5 8 0 11 -13 10 -11 -1 -20 -4 -20 -8 0 -4 -79 -8 -175 -8 -96 -1 -175 1 -175
3 0 9 41 92 52 106 7 9 24 24 38 33 16 11 19 17 9 17 -20 0 -62 -45 -87 -95
-12 -23 -21 -32 -22 -22 0 9 -4 17 -10 17 -13 0 -13 -16 0 -41 7 -13 7 -19 0
-19 -5 0 -10 7 -10 15 0 16 -30 20 -46 6 -5 -4 -22 -12 -39 -15 l-29 -7 19 22
20 22 -22 -12 c-13 -6 -23 -16 -23 -21 0 -13 -97 -13 -105 0 -3 6 -11 10 -16
10 -6 0 -8 -3 -5 -8 2 -4 -20 -9 -50 -10 l-54 -3 0 590 0 591 590 0 590 0 0
-590z m-236 -559 c3 -5 -2 -15 -12 -22 -15 -12 -16 -12 -5 2 7 9 10 19 6 22
-3 4 -4 7 0 7 3 0 8 -4 11 -9z m-614 -21 c0 -5 -5 -10 -11 -10 -5 0 -7 5 -4
10 3 6 8 10 11 10 2 0 4 -4 4 -10z m560 0 c0 -5 -7 -10 -15 -10 -8 0 -15 5
-15 10 0 6 7 10 15 10 8 0 15 -4 15 -10z"/>
<path d="M330 1152 c0 -2 11 -13 24 -23 25 -20 59 -84 70 -133 7 -27 4 -25
-42 22 -46 47 -116 92 -144 92 -7 0 10 -11 37 -25 47 -22 95 -57 95 -68 0 -3
-17 1 -37 9 -47 16 -144 18 -178 2 -27 -12 -34 -28 -11 -28 16 0 79 -67 100
-108 l15 -29 -55 5 c-53 4 -114 -11 -114 -29 0 -5 4 -9 10 -9 25 0 140 -126
140 -153 0 -6 -15 3 -33 19 -39 37 -82 64 -99 64 -7 0 10 -13 37 -29 28 -16
66 -45 84 -65 l35 -36 -62 0 c-35 0 -62 -4 -62 -10 0 -5 8 -10 18 -10 25 0
157 -65 181 -89 12 -12 18 -27 15 -36 -8 -20 11 -42 55 -65 l36 -19 -34 -1
c-19 0 -61 -7 -93 -16 -53 -15 -58 -19 -58 -45 0 -16 -13 -50 -29 -76 -28 -47
-47 -93 -38 -93 3 0 19 29 36 65 16 36 33 65 36 65 4 0 4 -37 1 -82 -4 -71 -4
-75 4 -28 4 30 13 70 18 87 8 24 7 32 -1 30 -7 -1 -12 9 -12 23 0 28 27 44 93
54 40 6 42 5 30 -13 -13 -21 0 -63 34 -107 l20 -25 40 46 c68 78 117 91 197
55 l43 -20 -31 -35 c-35 -40 -44 -67 -39 -118 l3 -35 16 48 c8 27 12 47 7 44
-21 -13 -5 27 22 56 l31 33 28 -27 c16 -15 37 -43 47 -62 10 -19 23 -34 27
-34 5 0 1 12 -8 26 -17 27 -17 27 21 60 43 35 113 61 198 73 51 7 86 24 86 41
0 4 -9 18 -21 31 -35 40 -160 33 -271 -15 -26 -11 -44 -29 -58 -56 l-20 -40
-58 29 c-31 16 -76 32 -99 36 -25 4 -43 12 -43 20 0 18 76 55 89 42 7 -7 41 0
103 21 51 17 117 34 146 38 60 8 67 20 17 30 -19 3 -35 10 -35 15 0 11 87 51
163 75 69 21 57 32 -38 34 -56 1 -59 2 -40 16 11 8 46 24 79 36 l60 22 -30 12
c-16 7 -52 15 -79 18 -53 6 -50 5 54 -19 20 -5 13 -11 -47 -40 -97 -46 -98
-55 -10 -55 l73 -1 -80 -33 c-150 -62 -157 -67 -102 -83 31 -9 31 -9 -38 -26
-38 -10 -78 -20 -88 -23 -15 -5 -15 -2 4 30 11 19 19 45 17 58 -2 19 -10 24
-40 26 -24 2 -38 8 -38 17 0 18 -25 26 -39 12 -19 -19 -12 -28 10 -16 20 10
21 9 16 -10 -5 -19 -2 -20 34 -15 31 5 40 3 45 -11 10 -25 -23 -81 -60 -105
-28 -17 -33 -18 -53 -4 -13 8 -23 11 -23 6 0 -5 -19 -18 -42 -28 -53 -24 -140
-24 -189 0 -31 14 -38 24 -41 54 -3 20 -1 39 3 42 10 7 -10 100 -22 100 -6 0
-7 -5 -3 -12 7 -11 7 -68 1 -75 -2 -1 -39 15 -82 37 l-80 40 42 0 c24 0 43 -5
46 -12 4 -10 6 -10 6 0 2 28 -55 120 -111 178 -47 49 -55 63 -43 68 25 9 90 7
119 -4 20 -7 26 -6 26 4 0 22 -77 134 -101 146 -32 18 -7 30 61 30 77 0 120
-14 168 -56 35 -30 42 -33 42 -17 0 38 -31 123 -56 153 l-26 30 34 0 c43 0
125 -40 163 -80 20 -21 31 -45 36 -78 l6 -47 2 43 c1 37 -4 48 -39 86 -23 24
-57 52 -77 61 -33 16 -153 37 -153 27z m719 -718 c26 -5 31 -11 31 -34 0 -24
-3 -27 -22 -22 -15 3 -19 2 -14 -7 6 -8 1 -10 -18 -5 -16 4 -26 2 -26 -5 0 -6
-12 -8 -32 -4 -22 4 -29 3 -24 -5 5 -8 -2 -12 -18 -12 -14 0 -26 -4 -26 -9 0
-5 -19 -13 -42 -17 -33 -5 -39 -8 -23 -14 19 -7 19 -7 -4 -19 -19 -11 -26 -10
-38 2 -13 12 -13 19 0 50 19 44 83 83 158 96 29 5 57 9 60 10 4 0 21 -2 38 -5z
m-500 -55 c-11 -7 -9 -9 5 -9 15 0 10 -7 -21 -30 -22 -17 -48 -41 -57 -55 -22
-33 -29 -32 -54 14 -25 44 -28 65 -8 58 8 -3 18 4 24 18 9 20 20 24 64 27 53
3 73 -7 47 -23z"/>
<path d="M637 953 c-3 -5 14 -7 36 -5 82 5 167 -77 167 -160 0 -28 1 -28 58
-27 32 1 48 4 37 8 -11 3 25 9 80 12 89 6 86 6 -32 4 l-132 -3 -6 40 c-8 47
-56 105 -102 124 -35 15 -99 19 -106 7z"/>
<path d="M400 840 c-36 -36 -62 -99 -54 -133 6 -28 5 -30 -9 -19 -14 12 -15
10 -8 -15 4 -16 16 -29 27 -31 18 -4 18 -3 -1 12 -18 15 -18 15 -1 10 15 -6
17 -3 12 14 -12 37 6 50 21 17 l13 -30 -6 33 c-4 25 -2 32 10 32 8 0 18 -10
22 -22 9 -30 45 -66 51 -51 12 34 69 97 110 123 26 17 48 28 51 26 9 -10 -31
-67 -58 -81 -16 -8 -34 -24 -40 -34 -15 -28 -12 -35 6 -17 17 18 39 22 29 6
-10 -16 11 -12 25 4 9 12 17 13 36 4 20 -10 27 -9 34 2 5 9 5 19 -2 27 -8 10
-2 16 23 27 43 18 48 13 23 -22 -11 -15 -24 -34 -29 -42 -7 -12 -6 -13 6 -3
21 17 55 81 47 88 -4 4 -26 -2 -50 -12 -59 -27 -71 -21 -51 23 9 18 14 36 11
40 -13 12 -89 -38 -136 -91 l-50 -56 -17 45 c-12 31 -16 62 -13 96 5 54 -1 61
-32 30z m20 -42 c0 -31 -3 -39 -11 -31 -7 7 -8 24 -4 42 9 43 15 39 15 -11z
m-28 -3 c-2 -14 -8 -25 -13 -25 -12 0 -11 7 1 31 14 26 18 24 12 -6z"/>
<path d="M657 651 c-10 -12 -7 -13 16 -7 19 4 26 3 22 -4 -11 -18 11 -11 30
10 18 20 18 20 -19 18 -21 -2 -43 -9 -49 -17z"/>
<path d="M396 634 c-3 -9 -5 -30 -5 -47 1 -20 3 -24 6 -12 2 11 6 30 9 43 2
13 9 20 14 17 6 -3 10 -1 10 4 0 17 -27 13 -34 -5z"/>
<path d="M547 644 c-4 -4 -7 -12 -7 -18 0 -6 5 -5 12 2 22 22 37 13 41 -28 l4
-40 -1 42 c-1 35 -5 44 -21 46 -12 2 -24 0 -28 -4z"/>
<path d="M427 593 c-11 -10 -8 -43 3 -43 6 0 10 11 10 25 0 26 -2 29 -13 18z"/>
<path d="M520 565 c0 -17 5 -25 13 -22 6 2 12 12 12 22 0 10 -6 20 -12 23 -8
2 -13 -6 -13 -23z"/>
<path d="M710 545 l-23 -25 24 0 24 0 -25 -20 c-14 -10 -21 -22 -16 -27 4 -4
16 3 27 16 15 18 17 27 8 37 -7 9 -8 14 -1 14 5 0 12 7 16 15 8 23 -8 18 -34
-10z"/>
<path d="M430 511 c0 -6 4 -12 8 -15 5 -3 9 1 9 9 0 8 -4 15 -9 15 -4 0 -8 -4
-8 -9z"/>
<path d="M560 510 c0 -13 20 -13 40 0 12 8 9 10 -12 10 -16 0 -28 -4 -28 -10z"/>
<path d="M486 495 c-3 -8 -18 -15 -33 -15 -20 0 -24 -3 -16 -11 9 -9 18 -8 37
5 15 9 26 21 26 26 0 15 -7 12 -14 -5z"/>
<path d="M1000 90 c0 -5 4 -10 9 -10 6 0 13 5 16 10 3 6 -1 10 -9 10 -9 0 -16
-4 -16 -10z"/>
</g>
</svg>
